<svg version="1.2" xmlns="http://www.w3.org/2000/svg" viewBox="0 0 118 26" width="118" height="26"><defs><clipPath clipPathUnits="userSpaceOnUse" id="cp1"><path d="m0 0h118v26h-118z"/></clipPath></defs><style>.a{fill:#203656}.b{fill:#fe4f70}</style><g clip-path="url(#cp1)"><path fill-rule="evenodd" class="a" d="m13.2 25l-8-10.5v10.5h-5.8v-23.9h5.8v10.5l7.9-10.5h6.9l-9.3 11.7 9.6 12.2zm8.7-9.5q0-2.9 1.1-5.2 1.1-2.2 3.1-3.4 1.9-1.1 4.2-1.1 2 0 3.5 0.8 1.5 0.8 2.3 2.1v-2.7h5.9v19h-5.9v-2.7q-0.8 1.3-2.3 2.2-1.5 0.8-3.5 0.8-2.3 0-4.2-1.2-2-1.2-3.1-3.5-1.1-2.2-1.1-5.1zm14.2 0q0-2.2-1.2-3.4-1.2-1.3-2.9-1.3-1.7 0-3 1.3-1.1 1.2-1.1 3.4 0 2.2 1.1 3.4 1.3 1.3 3 1.3 1.7 0 2.9-1.3 1.2-1.2 1.2-3.4zm20.6 4.6v4.9h-2.9q-3.2 0-4.9-1.5-1.8-1.6-1.8-5.1v-7.5h-2.3v-4.9h2.3v-4.6h5.8v4.6h3.8v4.9h-3.8v7.6q0 0.8 0.4 1.2 0.4 0.4 1.4 0.4zm21.1-4.9q0 0.8-0.1 1.7h-13.2q0.2 1.8 1.2 2.7 1 0.9 2.4 0.9 2.2 0 3.1-1.8h6.1q-0.4 1.9-1.7 3.4-1.2 1.5-3.1 2.3-1.8 0.9-4.2 0.9-2.7 0-4.9-1.2-2.2-1.2-3.4-3.4-1.2-2.2-1.2-5.2 0-2.9 1.1-5.2 1.3-2.2 3.4-3.4 2.2-1.1 5-1.1 2.8 0 4.9 1.1 2.2 1.2 3.4 3.3 1.2 2.2 1.2 5zm-6-1.5q0-1.5-1-2.4-1-0.9-2.5-0.9-1.5 0-2.5 0.9-1 0.8-1.2 2.4zm20.5-7.9q3.4 0 5.3 2.2 2.1 2.1 2.1 5.9v11.1h-5.8v-10.3q0-1.9-1-3-1-1-2.7-1-1.6 0-2.6 1-1 1.1-1 3v10.3h-5.8v-19h5.8v2.5q0.9-1.2 2.4-1.9 1.5-0.8 3.3-0.8z"/><path class="b" d="m111 25c-2.2 0-4-1.8-4-4 0-2.2 1.8-4 4-4 2.2 0 4 1.8 4 4 0 2.2-1.8 4-4 4z"/></g></svg>